<?xml version="1.0" encoding="utf-8"?>
<!-- Generator: Adobe Illustrator 24.0.1, SVG Export Plug-In . SVG Version: 6.00 Build 0)  -->
<svg version="1.1" xmlns="http://www.w3.org/2000/svg" xmlns:xlink="http://www.w3.org/1999/xlink" x="0px" y="0px"
	 viewBox="0 0 800 800" style="enable-background:new 0 0 800 800;" xml:space="preserve">
<style type="text/css">
	.st0{fill:#FFFFFF;}
	.st1{fill:#BF5700;}
	.st2{fill:#333F48;}
</style>
<g id="Orange_Background">
	<g>
		<rect x="0.5" y="0.5" class="st0" width="799" height="799"/>
		<path d="M799,1v798H1V1H799 M800,0H0v800h800V0L800,0z"/>
	</g>
</g>
<g id="Live_x5F_Text">
	<g>
		<g>
			<g>
				<polygon class="st1" points="104.09,299.39 104.09,332.42 111.37,332.42 119.95,308.72 147.95,308.34 147.95,421.45 
					125.55,423.88 126.49,430.42 157.84,429.86 188.08,430.42 189.01,423.88 167.55,421.45 167.55,308.34 195.54,308.72 
					204.13,332.42 211.41,332.42 211.41,299.39 157.66,299.95 				"/>
				<polygon class="st1" points="309.41,421.08 258.08,421.64 258.08,365.64 284.21,366.39 291.68,385.99 298.21,385.99 
					296.34,360.79 298.21,337.46 291.68,337.46 284.21,357.06 258.08,357.81 258.08,308.16 307.54,308.72 317.99,332.98 
					324.34,332.98 322.47,299.39 248.37,299.95 222.62,299.39 221.68,305.92 238.48,308.34 238.48,421.45 221.68,423.88 
					222.62,430.42 248.37,429.86 322.47,430.42 329.01,395.89 321.92,395.89 				"/>
				<path class="st1" d="M526.12,297.7l-11.2,3.18l-46.29,120.95l-8.99,1.21l-8.93-1.4l-41.44-61.04l38.26-52.63l14.56-2.05
					l-0.93-6.53l-21.84,0.56l-21.84-0.56l-0.93,6.53l16.24,2.42l-29.63,43.55l-26.37-43.73l15.86-2.43l-0.93-6.53l-26.51,0.75
					l-26.69-0.75l-0.93,6.53l14.56,2.05l38.64,58.43l-40.31,55.43l-14.56,2.05l0.94,6.72l20.91-0.56l21.83,0.56l0.93-6.72
					l-15.31-2.24l31.82-46.55l29.03,46.37l-15.86,2.42l0.94,6.72l26.69-0.56l21.81,0.46l15.34-0.46l22.4,0.56l0.93-6.53l-16.24-2.43
					l12.14-34.9h46.1l12.7,34.9l-15.87,2.43l0.94,6.53l24.64-0.56l25.76,0.56l0.93-6.53l-14.56-2.05L526.12,297.7z M497.19,377.78
					l19.36-55.97l20.4,55.97H497.19z"/>
				<path class="st1" d="M652.68,357.06l-21.47-9.33c-10.26-4.48-17.54-10.83-17.54-21.09c0-12.51,8.77-20.53,23.52-20.53
					c11.2,0,17.18,4.1,22.03,9.14l5.41,16.98h9.33v-25.2c-9.33-6.9-22.4-10.83-34.15-10.83c-25.95,5.42-44.61,17.36-44.61,37.7
					c0,16.61,11.01,25.2,24.45,30.98l22.59,9.9c11.2,4.85,19.41,12.13,19.41,24.82c0,13.63-9.33,23.71-25.38,23.71
					c-10.46,0-20.72-4.86-26.32-11.76l-6.53-15.86h-13.07l4.1,25.2c9.9,7.84,21.47,12.69,38.64,12.69
					c35.09-7.27,47.04-24.26,47.04-41.81C680.3,372.74,667.42,363.4,652.68,357.06z"/>
			</g>
		</g>
		<g>
			<polygon class="st1" points="399.94,156.87 400.08,156.87 400.08,156.82 399.94,156.82 399.94,156.87 			"/>
			<path class="st1" d="M416.35,143.19c-3.43-0.52-6.67-1.02-9.6-1.02c-1.57,0-2.94,0.15-4.17,0.45l-0.69-19.14v-3.18
				c1.35-0.56,2.99-0.83,5.07-0.83c2.68,0,5.73,0.45,8.97,0.92c2.85,0.42,5.77,0.83,8.78,1.02l0.82,22.88
				C422.45,144.13,419.36,143.66,416.35,143.19L416.35,143.19z M383.67,143.19c-3.01,0.47-6.11,0.94-9.19,1.11l0.82-22.88
				c3-0.19,5.93-0.61,8.78-1.02c3.24-0.48,6.3-0.92,8.97-0.92c2.08,0,3.72,0.26,5.07,0.83v3.18l-0.69,19.14
				c-1.23-0.29-2.6-0.45-4.18-0.45C390.34,142.17,387.1,142.67,383.67,143.19L383.67,143.19z M432.3,129.69v-4.35h-2.68v-7.43h-1.82
				c-3.83,0-7.65-0.56-11.35-1.1c-3.37-0.49-6.56-0.96-9.5-0.96c-2.76,0-5.05,0.44-6.95,1.33c-1.9-0.89-4.19-1.33-6.95-1.33
				c-2.94,0-6.13,0.47-9.5,0.96c-3.69,0.54-7.51,1.1-11.35,1.1h-1.81v7.43h-2.68v4.35h2.68v5.89h-2.65v4.35h2.65V148h1.81
				c4.1,0,8.13-0.62,12.02-1.22c3.29-0.51,6.39-0.99,9.04-0.99c2.14,0,3.75,0.31,4.99,0.96l0,0h3.49l0,0
				c1.25-0.65,2.85-0.96,4.99-0.96c2.66,0,5.76,0.48,9.05,0.99c3.89,0.6,7.92,1.22,12.01,1.22h1.82v-8.07h2.65v-4.35h-2.65v-5.89
				H432.3L432.3,129.69z"/>
			<path class="st1" d="M384.17,123.68c-0.18,0.02-0.35,0.05-0.54,0.08c-1.71,0.25-3.43,0.51-5.19,0.71l-0.1,2.93
				c1.93-0.21,3.83-0.49,5.71-0.77c0.04-0.01,0.08-0.01,0.11-0.02V123.68L384.17,123.68z"/>
			<path class="st1" d="M386.34,123.37v2.93c3.09-0.43,5.92-0.73,8.37-0.53l0.1-2.89C392.2,122.67,389.33,122.96,386.34,123.37
				L386.34,123.37z"/>
			<path class="st1" d="M384.17,136.95c-0.18,0.03-0.35,0.05-0.54,0.08c-1.86,0.27-3.75,0.55-5.66,0.76l-0.11,2.93
				c2.1-0.22,4.16-0.52,6.19-0.82c0.04-0.01,0.08-0.01,0.11-0.02V136.95L384.17,136.95z"/>
			<path class="st1" d="M386.34,136.65v2.93c2.89-0.4,5.56-0.7,7.9-0.57l0.1-2.89C391.85,135.99,389.16,136.26,386.34,136.65
				L386.34,136.65z"/>
			<path class="st1" d="M383.72,130.38v2.93c0.11-0.02,0.22-0.04,0.34-0.05c3.88-0.56,7.42-1.09,10.42-0.89l0.11-2.88
				C391.26,129.29,387.56,129.82,383.72,130.38L383.72,130.38z"/>
			<path class="st1" d="M381.55,130.7c-1.11,0.16-2.22,0.31-3.33,0.44l-0.11,2.93c1.16-0.12,2.31-0.28,3.44-0.44V130.7L381.55,130.7
				z"/>
			<path class="st1" d="M412.35,123.2c-2.51-0.31-4.93-0.49-7.15-0.32l0.1,2.89c2.1-0.17,4.48,0.03,7.05,0.36V123.2L412.35,123.2z"
				/>
			<path class="st1" d="M421.57,124.46c-1.75-0.2-3.48-0.45-5.19-0.71c-0.62-0.09-1.25-0.18-1.86-0.26v2.93
				c0.47,0.06,0.95,0.14,1.43,0.21c1.88,0.28,3.78,0.56,5.72,0.77L421.57,124.46L421.57,124.46z"/>
			<path class="st1" d="M411.75,129.77c-2.21-0.25-4.33-0.39-6.32-0.27l0.11,2.88c1.88-0.12,3.96,0.03,6.21,0.31V129.77
				L411.75,129.77z"/>
			<path class="st1" d="M421.81,131.13c-1.83-0.21-3.64-0.47-5.42-0.74c-0.83-0.12-1.65-0.24-2.46-0.35v2.93
				c0.67,0.09,1.35,0.19,2.03,0.29c1.95,0.29,3.93,0.58,5.95,0.79L421.81,131.13L421.81,131.13z"/>
			<path class="st1" d="M416.1,139.92c1.98,0.29,4,0.58,6.05,0.8l-0.11-2.93c-1.91-0.21-3.8-0.49-5.66-0.76
				c-0.09-0.02-0.19-0.03-0.28-0.04V139.92L416.1,139.92z"/>
			<path class="st1" d="M413.93,136.68c-2.9-0.4-5.69-0.69-8.26-0.56l0.11,2.89c2.41-0.13,5.16,0.18,8.15,0.61V136.68L413.93,136.68
				z"/>
			<path class="st1" d="M396.24,183.5l3.78-9.44l3.78,9.44l10.15,0.68l-7.81,6.51l2.49,9.85l-8.6-5.42l-8.6,5.42l2.5-9.85
				l-7.81-6.51L396.24,183.5L396.24,183.5z M373.25,180.15L373.25,180.15l16.39,11.93l-6.32,19.42c0.01,0.04,0.02,0.07,0.05,0.09
				c0.03,0.02,0.06,0.02,0.1,0.02l16.53-12.02l16.52,12.01c0.04,0.01,0.08,0,0.1-0.02c0.05-0.04,0.06-0.11,0.04-0.18l-6.29-19.35
				l16.39-11.91v-0.01c0.08-0.03,0.12-0.11,0.1-0.18c-0.02-0.07-0.11-0.11-0.19-0.08v-0.01h-20.26l-6.26-19.28h-0.01
				c0-0.08-0.06-0.15-0.14-0.15c-0.08,0-0.14,0.07-0.14,0.15h-0.01l-6.26,19.28h-20.27l-0.01,0.01c-0.08-0.03-0.16,0.01-0.18,0.08
				C373.13,180.04,373.17,180.12,373.25,180.15L373.25,180.15z"/>
			<path class="st1" d="M440.7,204.51c-1.48,1.63-3.39,2.76-5.52,3.28c0.3-2.17,1.23-4.2,2.71-5.82c1.49-1.64,3.41-2.78,5.52-3.28
				C443.12,200.85,442.18,202.88,440.7,204.51L440.7,204.51z M432.77,191.76c-0.28-2.19,0.1-4.39,1.08-6.34
				c1.45,1.63,2.38,3.66,2.67,5.85c0.29,2.18-0.09,4.38-1.08,6.33C433.99,195.97,433.06,193.94,432.77,191.76L432.77,191.76z
				 M437.16,175.17c-0.41-2.18-0.16-4.39,0.7-6.4c1.55,1.54,2.6,3.51,3.01,5.68c0.42,2.16,0.18,4.38-0.69,6.39
				C438.63,179.3,437.58,177.33,437.16,175.17L437.16,175.17z M447.63,180.01c0.15,2.19-0.35,4.36-1.46,6.27
				c-1.11,1.91-2.75,3.41-4.72,4.35c-0.15-2.19,0.34-4.36,1.45-6.27C444.03,182.45,445.67,180.95,447.63,180.01L447.63,180.01z
				 M431.58,221.22c-1.78,1.29-3.88,2-6.07,2.07c0.74-2.07,2.07-3.86,3.86-5.15c1.79-1.3,3.89-2.01,6.08-2.06
				C434.7,218.14,433.36,219.93,431.58,221.22L431.58,221.22z M426.45,207.11c0.18-2.21,1.01-4.27,2.37-5.98
				c1.08,1.89,1.58,4.06,1.41,6.27c-0.17,2.2-0.99,4.27-2.36,5.98C426.78,211.48,426.28,209.31,426.45,207.11L426.45,207.11z
				 M420.73,221.89c-0.62,2.11-1.85,3.97-3.55,5.36c-0.67-2.08-0.71-4.3-0.08-6.42c0.63-2.12,1.87-3.98,3.55-5.36
				C421.32,217.53,421.35,219.76,420.73,221.89L420.73,221.89z M424.04,231.45c-1.15,1.86-2.83,3.34-4.85,4.23
				c-1.4,0.62-2.89,0.94-4.42,0.94l0,0c-0.66,0-1.31-0.05-1.95-0.18c1.15-1.86,2.83-3.33,4.84-4.23
				C419.69,231.32,421.9,231.06,424.04,231.45L424.04,231.45z M405.11,232.31c1.06-1.95,2.65-3.52,4.59-4.52
				c0.22,2.16-0.2,4.35-1.25,6.3c-1.04,1.94-2.63,3.5-4.57,4.52C403.64,236.44,404.07,234.25,405.11,232.31L405.11,232.31z
				 M380.61,235.69c-2.01-0.89-3.69-2.38-4.85-4.23c2.14-0.39,4.36-0.13,6.38,0.77c2.01,0.9,3.69,2.36,4.84,4.23
				C384.84,236.84,382.62,236.58,380.61,235.69L380.61,235.69z M379.08,221.88c-0.62-2.12-0.59-4.35,0.08-6.42
				c1.68,1.38,2.92,3.23,3.55,5.36c0.62,2.12,0.58,4.35-0.09,6.43C380.94,225.85,379.7,224,379.08,221.88L379.08,221.88z
				 M390.11,227.8c1.93,1,3.53,2.56,4.58,4.5c1.05,1.95,1.47,4.14,1.25,6.31c-1.94-1.01-3.53-2.58-4.58-4.52
				C390.31,232.15,389.89,229.96,390.11,227.8L390.11,227.8z M368.23,221.22c-1.79-1.29-3.12-3.08-3.86-5.14
				c2.19,0.06,4.29,0.76,6.07,2.06c1.79,1.29,3.12,3.08,3.86,5.15C372.11,223.22,370.02,222.51,368.23,221.22L368.23,221.22z
				 M370.99,201.13c1.36,1.71,2.19,3.77,2.37,5.97c0.17,2.21-0.33,4.38-1.41,6.27c-1.37-1.71-2.19-3.78-2.36-5.99
				C369.42,205.19,369.91,203.02,370.99,201.13L370.99,201.13z M359.11,204.51c-1.48-1.63-2.42-3.66-2.72-5.83
				c2.12,0.5,4.03,1.64,5.52,3.28c1.48,1.62,2.42,3.65,2.72,5.82C362.51,207.27,360.58,206.14,359.11,204.51L359.11,204.51z
				 M358.35,190.63c-1.97-0.94-3.62-2.45-4.72-4.35c-1.11-1.91-1.61-4.08-1.46-6.27c1.96,0.94,3.61,2.44,4.73,4.35
				C358.01,186.26,358.51,188.44,358.35,190.63L358.35,190.63z M358.94,174.44c0.42-2.17,1.47-4.13,3.01-5.67
				c0.86,2.01,1.11,4.22,0.7,6.39c-0.42,2.16-1.47,4.13-3.02,5.68C358.76,178.83,358.51,176.61,358.94,174.44L358.94,174.44z
				 M363.29,191.26c0.29-2.19,1.22-4.21,2.67-5.84c0.98,1.95,1.36,4.15,1.08,6.34c-0.29,2.18-1.22,4.21-2.67,5.84
				C363.38,195.65,363,193.45,363.29,191.26L363.29,191.26z M440.71,194.01c3.38-1.02,6.22-3.24,7.98-6.27
				c1.76-3.03,2.31-6.6,1.53-10.04l-0.34-1.51l-1.49,0.44c-1.71,0.51-3.29,1.33-4.65,2.42c0.32-1.69,0.32-3.43-0.02-5.14
				c-0.66-3.46-2.6-6.5-5.44-8.58l-1.26-0.92l-0.82,1.32c-1.87,2.98-2.54,6.53-1.88,9.98c0.66,3.43,2.58,6.46,5.4,8.54
				c-0.52,1.18-0.88,2.42-1.05,3.69c-0.84-2.29-2.26-4.35-4.19-5.94l-1.2-0.99l-0.91,1.26c-2.04,2.86-2.92,6.36-2.48,9.86
				c0.46,3.48,2.2,6.64,4.93,8.89l0.06,0.04c-0.8,1.09-1.43,2.27-1.88,3.53c-0.34-2.42-1.32-4.72-2.88-6.68l-0.96-1.22l-1.15,1.05
				c-2.59,2.38-4.18,5.62-4.46,9.13c-0.28,3.5,0.79,6.94,2.98,9.71l0.06,0.07c-1.01,0.89-1.87,1.92-2.57,3.06
				c0.16-2.45-0.31-4.9-1.43-7.14l-0.7-1.39l-1.33,0.79c-3.03,1.79-5.25,4.64-6.25,8.01c-0.99,3.38-0.66,6.96,0.91,10.12l0.04,0.08
				c-1.17,0.66-2.22,1.49-3.15,2.46c0.66-2.36,0.71-4.86,0.07-7.27l-0.39-1.51l-1.47,0.49c-3.33,1.13-6.09,3.46-7.77,6.56
				c-1.61,2.99-2.05,6.45-1.26,9.75c-0.44,0.31-0.91,0.62-1.39,0.95c-0.48-0.33-0.95-0.65-1.39-0.95c0.79-3.3,0.35-6.76-1.26-9.76
				c-1.68-3.09-4.43-5.42-7.77-6.55l-1.47-0.49l-0.39,1.51c-0.63,2.41-0.59,4.92,0.07,7.27c-0.92-0.97-1.97-1.8-3.14-2.46l0.04-0.08
				c1.58-3.16,1.91-6.74,0.92-10.12c-1.01-3.37-3.22-6.22-6.25-8.01l-1.33-0.79l-0.7,1.39c-1.12,2.23-1.59,4.69-1.43,7.14
				c-0.71-1.14-1.56-2.17-2.57-3.06l0.05-0.07c2.2-2.76,3.26-6.21,2.98-9.71c-0.28-3.51-1.86-6.75-4.46-9.13l-1.15-1.05l-0.96,1.22
				c-1.56,1.96-2.53,4.26-2.88,6.68c-0.45-1.26-1.08-2.44-1.88-3.53l0.06-0.04c2.72-2.25,4.47-5.42,4.92-8.89
				c0.45-3.49-0.43-7-2.48-9.86l-0.91-1.26l-1.19,0.99c-1.93,1.59-3.36,3.65-4.19,5.94c-0.18-1.28-0.53-2.52-1.06-3.7
				c2.83-2.08,4.75-5.11,5.41-8.54c0.65-3.46-0.01-7.01-1.88-9.98l-0.83-1.32l-1.25,0.92c-2.85,2.08-4.79,5.12-5.45,8.57
				c-0.33,1.72-0.34,3.46-0.02,5.15c-1.36-1.09-2.94-1.91-4.65-2.42l-1.49-0.44l-0.34,1.51c-0.78,3.45-0.24,7.02,1.53,10.04
				c1.76,3.03,4.6,5.26,7.98,6.27l1.31,0.39c0.14,1.1,0.41,2.19,0.81,3.23c-1.88-1.2-4.02-1.93-6.27-2.11l-1.55-0.13l-0.02,1.56
				c-0.05,3.53,1.22,6.9,3.58,9.5c2.35,2.61,5.59,4.2,9.1,4.49l1.36,0.12c0.36,1.05,0.85,2.06,1.46,2.99
				c-1.53-0.57-3.15-0.87-4.81-0.87c-0.59,0-1.18,0.04-1.76,0.11l-1.54,0.2l0.3,1.52c0.68,3.47,2.62,6.51,5.46,8.57
				c2.36,1.72,5.16,2.62,8.1,2.62c0.58,0,1.16-0.04,1.73-0.11l1.36-0.18c0.58,0.96,1.26,1.83,2.05,2.63
				c-2.2-0.33-4.46-0.14-6.59,0.61l-1.47,0.51l0.61,1.43c1.38,3.24,3.91,5.82,7.11,7.24c1.78,0.79,3.66,1.19,5.6,1.19
				c1.55,0,3.08-0.26,4.55-0.76l1.08-0.38c1.81,1.53,3.85,3.06,6.65,4.99c-1.28,0.84-2.69,1.76-4.27,2.78l2.73,1.69
				c1.54-0.99,2.9-1.89,4.15-2.72c1.25,0.83,2.61,1.72,4.15,2.72l2.72-1.69c-1.58-1.01-2.99-1.93-4.27-2.78
				c2.8-1.92,4.84-3.45,6.64-4.99l1.09,0.38c1.47,0.51,2.99,0.76,4.54,0.76l0,0c1.94,0,3.82-0.4,5.6-1.19
				c3.2-1.43,5.73-4.01,7.11-7.25l0.61-1.43l-1.47-0.51c-2.13-0.74-4.39-0.93-6.59-0.6c0.79-0.79,1.48-1.68,2.05-2.63l1.36,0.18
				c0.58,0.07,1.15,0.11,1.73,0.11c0.01,0,0.01,0,0.01,0c2.93,0,5.73-0.91,8.1-2.62c2.84-2.06,4.78-5.1,5.46-8.57l0.3-1.52
				l-1.54-0.2c-0.58-0.07-1.18-0.11-1.76-0.11c-1.66,0-3.28,0.3-4.81,0.87c0.61-0.93,1.1-1.93,1.46-2.99l1.36-0.12
				c3.52-0.29,6.75-1.89,9.1-4.49c2.35-2.6,3.62-5.97,3.58-9.5l-0.02-1.56l-1.55,0.13c-2.25,0.18-4.4,0.91-6.27,2.11
				c0.4-1.05,0.67-2.13,0.81-3.23L440.71,194.01L440.71,194.01z"/>
			<path class="st1" d="M441.08,224.66c-2.96,4.32-6.34,8.33-10.41,12.23c-12.58,11.55-26.7,17.93-30.67,19.59
				c-3.98-1.66-18.1-8.04-30.68-19.59c-4.08-3.9-7.46-7.91-10.41-12.23c-14.28-20.92-16.16-45.17-16.17-64.01h0.02l57.25-3.18
				l57.24,3.18C457.24,179.49,455.37,203.75,441.08,224.66L441.08,224.66z M345.79,111.98c10.64-1.18,34.58-3.56,54.22-3.56
				c19.64,0,43.57,2.38,54.22,3.56l2.98,41.94h-57.19h-57.19L345.79,111.98L345.79,111.98z M463.06,107.13l-2.54-0.32
				c-0.34-0.04-34.15-4.25-60.49-4.25c-0.01,0-0.01,0-0.02,0c-0.01,0-0.01,0-0.02,0c-26.34,0-60.15,4.21-60.49,4.25l-2.54,0.32
				v46.79h-0.02v6.53c0,19.71,1.95,45.18,17.18,67.49c3.14,4.59,6.71,8.83,10.98,12.95v0.01c0.03,0.02,0.05,0.05,0.08,0.07
				c8.26,7.95,19.18,15.45,34.8,24.16v0.02c0.01-0.01,0.01-0.01,0.02-0.01c0.01,0,0.01,0,0.01,0.01v-0.02
				c15.62-8.7,26.54-16.21,34.8-24.16c0.03-0.02,0.06-0.05,0.08-0.07v-0.01c4.27-4.12,7.84-8.36,10.98-12.95
				c15.23-22.3,17.18-47.78,17.18-67.49v-0.93h0.01V107.13L463.06,107.13z"/>
		</g>
		<g>
			<path class="st2" d="M85.52,571.57l-20.6,0.45l-0.75-5.23l13.44-1.94v-90.49l-13.44-1.94l0.75-5.23l20.6,0.45l20.46-0.45
				l0.75,5.23l-13.44,1.94V565l37.33-0.45l10.01-20.16h5.67l-5.23,27.62L85.52,571.57z"/>
			<path class="st2" d="M175.11,571.57l-20.61,0.45l-0.75-5.23l13.44-1.94v-90.49l-13.44-1.94l0.75-5.23l20.61,0.45l29.42-0.45
				c19.56-0.15,28.82,11.2,28.82,22.55c0,11.8-9.86,22.25-23.59,25.83c19.56,0.9,29.86,12.24,29.86,25.68
				c0,20.16-16.72,27.33-40.31,30.76L175.11,571.57z M182.88,474.36v39.27h12.39c13.14,0,21.95-10.15,21.95-22.4
				c0-10.45-6.42-17.32-18.67-17.62L182.88,474.36z M196.32,565.6c20.46,0,26.88-12.99,26.88-23.74c0-12.39-8.66-21.5-23.59-21.5
				h-16.72v44.5L196.32,565.6z"/>
			<path class="st2" d="M274.72,556.94c0,12.69-1.34,18.66-6.72,24.64L253.07,598h-13.44v-13.44h15.68l1.34-3.14
				c2.24-5.23,2.39-10.15,2.39-23.74v-83.32l-16.42-1.94l0.75-5.23l23.59,0.45l19.71-0.45l0.75,5.23l-12.69,1.94V556.94z"/>
			<path class="st2" d="M330.71,556.94c4.48,5.53,12.69,9.41,21.05,9.41c12.84,0,20.31-8.06,20.31-18.96
				c0-10.15-6.57-15.98-15.53-19.86l-18.07-7.91c-10.75-4.63-19.56-11.5-19.56-24.79c0-16.28,14.93-25.83,35.69-30.16
				c9.41,0,19.86,3.14,27.33,8.66v20.16h-7.47l-4.33-13.59c-3.88-4.03-8.66-7.32-17.62-7.32c-11.8,0-18.81,6.42-18.81,16.42
				c0,8.21,5.82,13.29,14.03,16.87l17.17,7.47c11.8,5.08,22.1,12.54,21.95,27.77c0,14.04-9.56,27.63-37.63,33.45
				c-13.74,0-23-3.88-30.91-10.15l-3.28-20.16h10.45L330.71,556.94z"/>
			<path class="st2" d="M438.37,509.75c-2.39-1.79-4.63-2.39-8.66-2.39c-10.15,0-17.92,11.35-17.92,27.62
				c0,15.98,8.66,27.92,23.29,27.92c5.68,0,11.65-2.84,16.87-6.27l2.39,5.67c-6.87,4.93-14.48,8.66-24.34,11.8
				c-19.11,0-33.3-12.54-33.3-35.54c0-23.44,17.17-34.64,35.54-39.12c6.87,0,16.13,3.43,20.61,7.47v14.93h-11.05L438.37,509.75z"/>
			<path class="st2" d="M485.71,565.3l8.21,1.49l-0.75,5.23l-14.18-0.45l-17.17,0.45l-0.75-5.23l10.45-1.49v-90.04l-10.45,0.3
				l-0.75-5.08l17.92-4.63l7.47-0.6v48.38l21.8-14.19c19.11,0,22.25,7.17,22.25,26.13v39.72l11.2,1.49l-0.75,5.23l-17.17-0.45
				L509,572.02l-0.75-5.23l7.32-1.49v-42.71c0-7.76-3.58-11.2-9.56-11.2c-4.48,0-10.3,3.28-15.83,6.72l-4.48,2.84V565.3z"/>
			<path class="st2" d="M615.03,535.29c0,22.25-13.59,35.09-36.73,38.82c-19.86,0-33.3-15.38-33.3-35.69
				c0-22.4,13.59-35.09,36.73-38.97C601.59,499.45,615.03,514.98,615.03,535.29z M582.03,566.79c11.94,0,18.07-12.24,18.07-28.37
				c0-18.96-9.11-31.66-22.1-31.66c-12.09,0-18.07,12.24-18.07,28.52C559.93,552.31,568.74,566.79,582.03,566.79z"/>
			<path class="st2" d="M694.77,535.29c0,22.25-13.59,35.09-36.73,38.82c-19.86,0-33.3-15.38-33.3-35.69
				c0-22.4,13.59-35.09,36.73-38.97C681.33,499.45,694.77,514.98,694.77,535.29z M661.77,566.79c11.94,0,18.07-12.24,18.07-28.37
				c0-18.96-9.11-31.66-22.1-31.66c-12.09,0-18.07,12.24-18.07,28.52C639.67,552.31,648.48,566.79,661.77,566.79z"/>
			<path class="st2" d="M717.92,571.57l-17.17,0.45l-0.75-5.23l10.45-1.49v-89.89l-10.45,0.3l-0.75-5.23l17.92-4.63l7.47-0.6V565.3
				l11.2,1.49l-0.75,5.23L717.92,571.57z"/>
		</g>
	</g>
</g>
</svg>
